<?xml version="1.0" encoding="utf-8"?>
<!-- Generator: Adobe Illustrator 17.0.0, SVG Export Plug-In . SVG Version: 6.00 Build 0)  -->
<!DOCTYPE svg PUBLIC "-//W3C//DTD SVG 1.1//EN" "http://www.w3.org/Graphics/SVG/1.1/DTD/svg11.dtd">
<svg version="1.1" id="Layer_1" xmlns="http://www.w3.org/2000/svg" xmlns:xlink="http://www.w3.org/1999/xlink" x="0px" y="0px"
	 width="100px" height="100px" viewBox="0 0 100 100" enable-background="new 0 0 100 100" xml:space="preserve">
<g>
	<g>
		<path fill="#AAAAAA" d="M18.567,56.627c0-14.243,0-28.485,0-42.728c0.189-0.04,0.158-0.224,0.203-0.343
			c0.662-1.75,2.019-2.732,3.881-2.733c18.231-0.005,36.463-0.006,54.694,0.001c2.386,0.001,4.083,1.723,4.084,4.118
			c0.005,13.546,0.002,27.091,0.004,40.637c0,0.475-0.06,0.936-0.211,1.387c-0.584,1.753-2.058,2.738-4.121,2.738
			c-14.221,0.001-28.442,0.001-42.663,0.001c-3.949,0-7.898,0.008-11.847-0.006c-1.784-0.006-3.172-1.01-3.801-2.673
			C18.738,56.889,18.768,56.688,18.567,56.627z M22.595,42.934c0.196-0.216,0.333-0.36,0.462-0.51
			c4.643-5.394,9.281-10.792,13.93-16.182c1.564-1.813,3.522-1.78,5.054,0.052c4.094,4.894,8.189,9.786,12.284,14.678
			c1.045,1.249,2.094,2.495,3.222,3.839c0.166-0.217,0.273-0.395,0.415-0.538c2.441-2.448,4.885-4.894,7.333-7.335
			c1.353-1.349,2.981-1.399,4.416-0.123c1.207,1.074,2.394,2.171,3.59,3.257c1.345,1.221,2.689,2.442,4.1,3.723
			c0-9.711,0-19.33,0-28.951c-18.293,0-36.546,0-54.806,0C22.595,24.206,22.595,33.523,22.595,42.934z"/>
		<path fill="#AAAAAA" d="M65.969,30.76c-3.031,0.004-5.511-2.471-5.5-5.488c0.011-3,2.464-5.46,5.459-5.474
			c3.031-0.015,5.512,2.437,5.531,5.464C71.479,28.277,69.004,30.756,65.969,30.76z"/>
	</g>
</g>
<g>
	<path fill="#AAAAAA" d="M31.268,76.077c0,0.087-0.015,0.164-0.045,0.231c-0.03,0.068-0.07,0.124-0.121,0.17
		c-0.051,0.045-0.111,0.078-0.181,0.099c-0.07,0.021-0.14,0.031-0.212,0.031h-0.632c-0.131,0-0.246-0.014-0.341-0.04
		c-0.096-0.026-0.185-0.074-0.265-0.144c-0.081-0.07-0.159-0.164-0.234-0.282c-0.075-0.119-0.16-0.272-0.254-0.46l-1.818-3.416
		c-0.105-0.203-0.213-0.422-0.322-0.657c-0.109-0.235-0.207-0.464-0.293-0.686h-0.011c0.015,0.271,0.026,0.541,0.034,0.81
		c0.007,0.27,0.011,0.547,0.011,0.833v3.821c0,0.038-0.01,0.071-0.031,0.102c-0.021,0.03-0.056,0.056-0.107,0.076
		s-0.12,0.037-0.206,0.048c-0.087,0.012-0.198,0.018-0.333,0.018c-0.132,0-0.241-0.006-0.328-0.018
		c-0.086-0.011-0.154-0.027-0.203-0.048s-0.083-0.046-0.102-0.076c-0.019-0.03-0.028-0.063-0.028-0.102v-6.565
		c0-0.177,0.052-0.31,0.155-0.397c0.104-0.089,0.23-0.133,0.381-0.133h0.796c0.143,0,0.263,0.013,0.361,0.037
		c0.098,0.024,0.186,0.064,0.263,0.121s0.149,0.135,0.217,0.234s0.137,0.223,0.209,0.369l1.422,2.671
		c0.083,0.161,0.165,0.32,0.246,0.477s0.159,0.313,0.234,0.469s0.148,0.31,0.22,0.46c0.071,0.15,0.141,0.301,0.209,0.451h0.005
		c-0.011-0.263-0.02-0.538-0.025-0.824c-0.005-0.285-0.008-0.559-0.008-0.818v-3.427c0-0.037,0.011-0.071,0.034-0.102
		c0.022-0.029,0.06-0.056,0.113-0.079c0.053-0.022,0.123-0.038,0.209-0.048c0.086-0.009,0.198-0.014,0.333-0.014
		c0.128,0,0.235,0.005,0.322,0.014c0.086,0.01,0.153,0.025,0.201,0.048c0.047,0.023,0.08,0.05,0.099,0.079
		c0.019,0.03,0.028,0.064,0.028,0.102V76.077z"/>
	<path fill="#AAAAAA" d="M39.43,72.859c0,0.606-0.075,1.148-0.226,1.626c-0.151,0.479-0.375,0.884-0.672,1.217
		s-0.665,0.587-1.104,0.762s-0.946,0.263-1.521,0.263c-0.568,0-1.064-0.074-1.487-0.223c-0.423-0.149-0.776-0.376-1.059-0.681
		s-0.494-0.692-0.635-1.163c-0.141-0.47-0.211-1.027-0.211-1.671c0-0.591,0.075-1.122,0.226-1.595
		c0.151-0.472,0.375-0.874,0.672-1.205s0.665-0.585,1.104-0.762s0.948-0.266,1.527-0.266c0.553,0,1.042,0.073,1.465,0.22
		c0.423,0.147,0.777,0.373,1.061,0.678s0.499,0.689,0.644,1.154S39.43,72.228,39.43,72.859z M37.872,72.938
		c0-0.384-0.03-0.732-0.09-1.047c-0.06-0.314-0.163-0.583-0.308-0.808c-0.145-0.224-0.338-0.396-0.579-0.52
		c-0.241-0.122-0.542-0.183-0.903-0.183c-0.365,0-0.67,0.068-0.915,0.206c-0.245,0.137-0.442,0.32-0.593,0.55
		c-0.151,0.229-0.257,0.498-0.319,0.805c-0.062,0.307-0.093,0.631-0.093,0.974c0,0.399,0.03,0.758,0.09,1.075
		c0.06,0.318,0.162,0.59,0.305,0.816c0.143,0.226,0.335,0.397,0.576,0.516c0.241,0.119,0.544,0.179,0.909,0.179
		c0.365,0,0.669-0.068,0.914-0.204c0.245-0.135,0.442-0.319,0.593-0.553c0.151-0.233,0.257-0.505,0.319-0.815
		C37.841,73.619,37.872,73.289,37.872,72.938z"/>
	<path fill="#AAAAAA" d="M44.782,76.394c0,0.037-0.012,0.071-0.037,0.102s-0.065,0.055-0.121,0.073
		c-0.057,0.019-0.132,0.034-0.226,0.045c-0.094,0.012-0.214,0.018-0.361,0.018c-0.143,0-0.262-0.006-0.358-0.018
		c-0.096-0.011-0.172-0.026-0.229-0.045c-0.057-0.019-0.097-0.043-0.122-0.073s-0.037-0.064-0.037-0.102v-6.898
		c0-0.037,0.012-0.071,0.037-0.102s0.066-0.055,0.125-0.073c0.058-0.019,0.134-0.034,0.229-0.045
		c0.094-0.012,0.212-0.018,0.355-0.018c0.147,0,0.267,0.006,0.361,0.018c0.094,0.011,0.169,0.026,0.226,0.045
		c0.056,0.019,0.097,0.043,0.121,0.073s0.037,0.064,0.037,0.102V76.394z"/>
	<path fill="#AAAAAA" d="M54.887,76.394c0,0.037-0.012,0.071-0.031,0.102c-0.021,0.03-0.059,0.055-0.113,0.073
		s-0.127,0.034-0.217,0.045c-0.09,0.012-0.205,0.018-0.344,0.018c-0.137,0-0.25-0.006-0.34-0.018
		c-0.09-0.011-0.162-0.026-0.215-0.045s-0.09-0.043-0.113-0.073c-0.021-0.03-0.033-0.064-0.033-0.102v-5.944h-0.012l-2.116,5.938
		c-0.015,0.049-0.04,0.09-0.073,0.121c-0.034,0.032-0.08,0.058-0.139,0.076c-0.059,0.02-0.133,0.031-0.223,0.037
		c-0.09,0.006-0.2,0.009-0.328,0.009s-0.237-0.005-0.327-0.015c-0.09-0.009-0.165-0.024-0.223-0.045
		c-0.059-0.021-0.104-0.046-0.138-0.076c-0.034-0.03-0.057-0.065-0.068-0.107l-2.043-5.938h-0.011v5.944
		c0,0.037-0.01,0.071-0.031,0.102c-0.021,0.03-0.059,0.055-0.116,0.073c-0.056,0.019-0.129,0.034-0.217,0.045
		c-0.088,0.012-0.202,0.018-0.341,0.018c-0.136,0-0.249-0.006-0.339-0.018c-0.09-0.011-0.163-0.026-0.217-0.045
		s-0.092-0.043-0.113-0.073c-0.021-0.03-0.031-0.064-0.031-0.102v-6.509c0-0.192,0.051-0.339,0.152-0.44s0.237-0.152,0.407-0.152
		h0.971c0.173,0,0.322,0.014,0.446,0.042c0.125,0.028,0.231,0.075,0.322,0.142c0.09,0.065,0.166,0.152,0.226,0.26
		s0.113,0.239,0.158,0.397l1.581,4.353h0.022l1.637-4.341c0.049-0.158,0.104-0.292,0.162-0.401c0.057-0.108,0.125-0.197,0.203-0.265
		c0.076-0.068,0.168-0.116,0.273-0.145s0.227-0.042,0.367-0.042h0.998c0.102,0,0.189,0.014,0.264,0.039
		c0.072,0.026,0.133,0.065,0.18,0.116s0.082,0.113,0.107,0.187s0.037,0.157,0.037,0.251V76.394z"/>
	<path fill="#AAAAAA" d="M62.462,76.044c0.046,0.135,0.074,0.242,0.085,0.321c0.012,0.079-0.004,0.139-0.045,0.178
		c-0.042,0.04-0.115,0.064-0.221,0.073c-0.104,0.01-0.25,0.015-0.435,0.015c-0.191,0-0.341-0.003-0.448-0.009
		s-0.189-0.017-0.246-0.034c-0.056-0.017-0.096-0.04-0.118-0.07s-0.042-0.069-0.057-0.118l-0.491-1.468h-2.743l-0.463,1.428
		c-0.016,0.053-0.035,0.097-0.06,0.133s-0.063,0.064-0.118,0.085s-0.132,0.034-0.231,0.042s-0.23,0.012-0.393,0.012
		c-0.173,0-0.309-0.006-0.406-0.018c-0.098-0.011-0.166-0.038-0.203-0.081c-0.038-0.044-0.051-0.104-0.04-0.184
		c0.012-0.079,0.04-0.185,0.085-0.316l2.252-6.48c0.023-0.064,0.049-0.116,0.079-0.155c0.03-0.04,0.078-0.069,0.145-0.091
		c0.065-0.021,0.157-0.033,0.273-0.039c0.117-0.006,0.271-0.009,0.463-0.009c0.222,0,0.399,0.003,0.53,0.009
		c0.132,0.006,0.234,0.019,0.309,0.039c0.073,0.021,0.126,0.052,0.157,0.094c0.032,0.041,0.06,0.098,0.082,0.169L62.462,76.044z
		 M59.109,70.687h-0.006l-1.033,3.104h2.072L59.109,70.687z"/>
	<path fill="#AAAAAA" d="M69.202,70.427c0,0.109-0.005,0.203-0.014,0.282c-0.01,0.079-0.022,0.142-0.04,0.189
		c-0.017,0.047-0.037,0.079-0.062,0.099c-0.024,0.019-0.054,0.028-0.088,0.028c-0.049,0-0.128-0.034-0.237-0.102
		c-0.108-0.068-0.254-0.142-0.435-0.221s-0.396-0.152-0.646-0.22c-0.25-0.068-0.541-0.102-0.872-0.102
		c-0.354,0-0.674,0.061-0.959,0.183c-0.286,0.123-0.531,0.296-0.734,0.52c-0.203,0.225-0.359,0.493-0.469,0.808
		c-0.108,0.314-0.163,0.661-0.163,1.041c0,0.418,0.056,0.786,0.166,1.104c0.111,0.317,0.267,0.584,0.466,0.798
		c0.199,0.215,0.439,0.377,0.72,0.486c0.28,0.108,0.59,0.163,0.929,0.163c0.166,0,0.329-0.019,0.491-0.057
		c0.162-0.037,0.313-0.094,0.451-0.169v-1.693h-1.383c-0.067,0-0.12-0.043-0.158-0.127c-0.037-0.085-0.056-0.229-0.056-0.432
		c0-0.105,0.004-0.194,0.014-0.266s0.023-0.129,0.042-0.172c0.02-0.044,0.042-0.075,0.068-0.097c0.026-0.021,0.056-0.03,0.09-0.03
		h2.467c0.061,0,0.114,0.01,0.161,0.03c0.047,0.021,0.089,0.052,0.124,0.094c0.036,0.041,0.063,0.091,0.082,0.149
		s0.028,0.125,0.028,0.2v2.907c0,0.113-0.02,0.212-0.06,0.297c-0.039,0.084-0.12,0.151-0.242,0.2
		c-0.123,0.049-0.274,0.1-0.455,0.152s-0.367,0.098-0.562,0.136c-0.193,0.037-0.39,0.065-0.587,0.084
		c-0.197,0.02-0.396,0.028-0.596,0.028c-0.583,0-1.105-0.084-1.566-0.251s-0.852-0.41-1.171-0.729
		c-0.32-0.317-0.564-0.705-0.734-1.163c-0.169-0.457-0.254-0.976-0.254-1.555c0-0.599,0.09-1.136,0.271-1.611
		c0.181-0.477,0.437-0.881,0.769-1.214c0.331-0.333,0.73-0.588,1.199-0.766c0.469-0.177,0.99-0.265,1.566-0.265
		c0.316,0,0.604,0.021,0.863,0.064c0.26,0.044,0.487,0.097,0.681,0.158c0.193,0.063,0.354,0.129,0.482,0.2
		c0.128,0.072,0.218,0.134,0.269,0.187s0.087,0.127,0.11,0.223C69.191,70.097,69.202,70.238,69.202,70.427z"/>
	<path fill="#AAAAAA" d="M75.039,76.016c0,0.108-0.005,0.2-0.015,0.273c-0.009,0.073-0.023,0.133-0.042,0.178
		s-0.042,0.078-0.07,0.099s-0.06,0.031-0.094,0.031h-3.669c-0.124,0-0.229-0.037-0.313-0.11s-0.127-0.192-0.127-0.358v-6.367
		c0-0.166,0.042-0.285,0.127-0.358s0.189-0.11,0.313-0.11h3.646c0.034,0,0.064,0.01,0.091,0.028s0.049,0.052,0.067,0.099
		s0.033,0.107,0.042,0.181c0.01,0.073,0.015,0.167,0.015,0.279c0,0.105-0.005,0.195-0.015,0.269
		c-0.009,0.073-0.023,0.133-0.042,0.178s-0.041,0.078-0.067,0.099s-0.057,0.031-0.091,0.031h-2.607v1.783h2.207
		c0.033,0,0.064,0.011,0.093,0.031s0.052,0.053,0.07,0.096c0.02,0.044,0.033,0.103,0.043,0.176c0.009,0.073,0.014,0.162,0.014,0.268
		c0,0.109-0.005,0.2-0.014,0.271c-0.01,0.071-0.023,0.129-0.043,0.172c-0.019,0.043-0.042,0.074-0.07,0.093
		c-0.028,0.02-0.06,0.028-0.093,0.028h-2.207v2.061h2.63c0.034,0,0.065,0.011,0.094,0.031s0.052,0.054,0.07,0.099
		s0.033,0.104,0.042,0.178C75.034,75.814,75.039,75.906,75.039,76.016z"/>
	<path fill="#AAAAAA" d="M30.968,89.917c0.045,0.135,0.073,0.242,0.084,0.321s-0.004,0.139-0.045,0.178
		c-0.042,0.04-0.115,0.064-0.22,0.073c-0.105,0.01-0.25,0.015-0.435,0.015c-0.192,0-0.342-0.003-0.449-0.009
		c-0.107-0.006-0.189-0.017-0.246-0.034c-0.057-0.017-0.096-0.04-0.119-0.07s-0.042-0.069-0.057-0.118l-0.491-1.468h-2.743
		l-0.463,1.428c-0.015,0.053-0.035,0.097-0.06,0.133s-0.064,0.064-0.118,0.085c-0.055,0.021-0.132,0.034-0.231,0.042
		c-0.1,0.008-0.231,0.012-0.393,0.012c-0.173,0-0.309-0.006-0.406-0.018c-0.098-0.011-0.166-0.038-0.203-0.081
		c-0.038-0.044-0.051-0.104-0.04-0.184c0.011-0.079,0.04-0.185,0.084-0.316l2.252-6.48c0.022-0.064,0.049-0.116,0.079-0.155
		c0.03-0.04,0.078-0.069,0.144-0.091c0.065-0.021,0.157-0.033,0.273-0.039s0.271-0.009,0.463-0.009c0.222,0,0.399,0.003,0.531,0.009
		s0.234,0.019,0.308,0.039c0.073,0.021,0.126,0.052,0.158,0.094c0.032,0.041,0.059,0.098,0.082,0.169L30.968,89.917z M27.615,84.56
		h-0.006l-1.033,3.104h2.072L27.615,84.56z"/>
	<path fill="#AAAAAA" d="M35.032,90.21c-0.019,0.064-0.043,0.116-0.073,0.155c-0.03,0.04-0.079,0.069-0.146,0.091
		c-0.068,0.021-0.16,0.033-0.277,0.039s-0.269,0.009-0.457,0.009c-0.151,0-0.28-0.001-0.387-0.003
		c-0.107-0.002-0.199-0.007-0.274-0.015c-0.075-0.007-0.136-0.019-0.184-0.033c-0.047-0.016-0.086-0.034-0.119-0.057
		c-0.032-0.022-0.056-0.05-0.073-0.082s-0.033-0.072-0.048-0.121l-2.173-6.476c-0.045-0.135-0.073-0.242-0.082-0.321
		s0.009-0.139,0.057-0.178c0.047-0.04,0.127-0.064,0.24-0.073c0.113-0.01,0.271-0.015,0.474-0.015c0.173,0,0.309,0.004,0.407,0.012
		c0.098,0.008,0.173,0.021,0.226,0.039c0.053,0.02,0.089,0.048,0.11,0.085c0.021,0.038,0.04,0.085,0.059,0.142l1.778,5.634h0.005
		l1.745-5.606c0.015-0.063,0.034-0.115,0.056-0.155c0.023-0.039,0.061-0.07,0.116-0.093s0.133-0.037,0.234-0.045
		s0.241-0.012,0.418-0.012c0.173,0,0.308,0.006,0.403,0.018c0.096,0.011,0.162,0.038,0.198,0.081
		c0.036,0.044,0.047,0.104,0.034,0.184s-0.042,0.185-0.087,0.316L35.032,90.21z"/>
	<path fill="#AAAAAA" d="M43.602,89.917c0.045,0.135,0.073,0.242,0.084,0.321s-0.004,0.139-0.045,0.178
		c-0.042,0.04-0.115,0.064-0.22,0.073c-0.105,0.01-0.25,0.015-0.435,0.015c-0.192,0-0.342-0.003-0.449-0.009
		c-0.107-0.006-0.189-0.017-0.246-0.034c-0.057-0.017-0.096-0.04-0.119-0.07s-0.042-0.069-0.057-0.118l-0.491-1.468h-2.743
		l-0.463,1.428c-0.015,0.053-0.035,0.097-0.06,0.133s-0.064,0.064-0.118,0.085c-0.055,0.021-0.132,0.034-0.231,0.042
		c-0.1,0.008-0.231,0.012-0.393,0.012c-0.173,0-0.309-0.006-0.406-0.018c-0.098-0.011-0.166-0.038-0.203-0.081
		c-0.038-0.044-0.051-0.104-0.04-0.184c0.011-0.079,0.04-0.185,0.084-0.316l2.252-6.48c0.022-0.064,0.049-0.116,0.079-0.155
		c0.03-0.04,0.078-0.069,0.144-0.091c0.065-0.021,0.157-0.033,0.273-0.039s0.271-0.009,0.463-0.009c0.222,0,0.399,0.003,0.531,0.009
		s0.234,0.019,0.308,0.039c0.073,0.021,0.126,0.052,0.158,0.094c0.032,0.041,0.059,0.098,0.082,0.169L43.602,89.917z M40.249,84.56
		h-0.006l-1.033,3.104h2.072L40.249,84.56z"/>
	<path fill="#AAAAAA" d="M46.114,90.267c0,0.037-0.012,0.071-0.037,0.102s-0.065,0.055-0.121,0.073
		c-0.057,0.019-0.132,0.034-0.226,0.045c-0.094,0.012-0.214,0.018-0.361,0.018c-0.143,0-0.262-0.006-0.358-0.018
		c-0.096-0.011-0.172-0.026-0.229-0.045c-0.057-0.019-0.097-0.043-0.122-0.073s-0.037-0.064-0.037-0.102v-6.898
		c0-0.037,0.012-0.071,0.037-0.102s0.066-0.055,0.125-0.073c0.058-0.019,0.134-0.034,0.229-0.045
		c0.094-0.012,0.212-0.018,0.355-0.018c0.147,0,0.267,0.006,0.361,0.018c0.094,0.011,0.169,0.026,0.226,0.045
		c0.056,0.019,0.097,0.043,0.121,0.073s0.037,0.064,0.037,0.102V90.267z"/>
	<path fill="#AAAAAA" d="M51.719,89.849c0,0.113-0.004,0.208-0.014,0.285s-0.023,0.142-0.043,0.192
		c-0.018,0.051-0.041,0.087-0.07,0.109c-0.027,0.022-0.061,0.034-0.098,0.034h-3.348c-0.124,0-0.229-0.037-0.313-0.11
		c-0.084-0.073-0.127-0.192-0.127-0.358v-6.633c0-0.037,0.012-0.071,0.037-0.102s0.065-0.055,0.122-0.073
		c0.056-0.019,0.133-0.034,0.229-0.045c0.096-0.012,0.215-0.018,0.358-0.018c0.147,0,0.267,0.006,0.361,0.018
		c0.094,0.011,0.169,0.026,0.226,0.045c0.056,0.019,0.097,0.043,0.121,0.073s0.037,0.064,0.037,0.102v5.877h2.298
		c0.037,0,0.07,0.01,0.098,0.03c0.029,0.021,0.053,0.055,0.07,0.102c0.02,0.048,0.033,0.109,0.043,0.187
		S51.719,89.736,51.719,89.849z"/>
	<path fill="#AAAAAA" d="M58.578,89.917c0.046,0.135,0.074,0.242,0.085,0.321c0.012,0.079-0.004,0.139-0.045,0.178
		c-0.042,0.04-0.115,0.064-0.221,0.073c-0.104,0.01-0.25,0.015-0.435,0.015c-0.191,0-0.341-0.003-0.448-0.009
		s-0.189-0.017-0.246-0.034c-0.056-0.017-0.096-0.04-0.118-0.07s-0.042-0.069-0.057-0.118l-0.491-1.468h-2.743l-0.463,1.428
		c-0.016,0.053-0.035,0.097-0.06,0.133s-0.063,0.064-0.118,0.085s-0.132,0.034-0.231,0.042s-0.23,0.012-0.393,0.012
		c-0.173,0-0.309-0.006-0.406-0.018c-0.098-0.011-0.166-0.038-0.203-0.081c-0.038-0.044-0.051-0.104-0.04-0.184
		c0.012-0.079,0.04-0.185,0.085-0.316l2.252-6.48c0.023-0.064,0.049-0.116,0.079-0.155c0.03-0.04,0.078-0.069,0.145-0.091
		c0.065-0.021,0.157-0.033,0.273-0.039c0.117-0.006,0.271-0.009,0.463-0.009c0.222,0,0.399,0.003,0.53,0.009
		c0.132,0.006,0.234,0.019,0.309,0.039c0.073,0.021,0.126,0.052,0.157,0.094c0.032,0.041,0.06,0.098,0.082,0.169L58.578,89.917z
		 M55.226,84.56H55.22l-1.033,3.104h2.072L55.226,84.56z"/>
	<path fill="#AAAAAA" d="M64.889,88.279c0,0.26-0.035,0.495-0.106,0.706c-0.072,0.211-0.171,0.396-0.297,0.559
		s-0.276,0.301-0.451,0.418c-0.176,0.116-0.368,0.213-0.579,0.288s-0.436,0.131-0.675,0.166c-0.238,0.036-0.505,0.054-0.799,0.054
		H60.04c-0.124,0-0.229-0.037-0.313-0.11S59.6,90.167,59.6,90.001v-6.367c0-0.166,0.042-0.285,0.127-0.358s0.189-0.11,0.313-0.11
		h1.835c0.447,0,0.826,0.038,1.137,0.113s0.572,0.188,0.785,0.341s0.375,0.346,0.488,0.579s0.169,0.508,0.169,0.824
		c0,0.177-0.022,0.343-0.067,0.499s-0.111,0.299-0.197,0.427c-0.087,0.128-0.193,0.24-0.319,0.339
		c-0.126,0.098-0.271,0.177-0.432,0.236c0.207,0.038,0.397,0.104,0.573,0.198c0.175,0.094,0.327,0.215,0.457,0.364
		c0.13,0.148,0.232,0.322,0.308,0.521C64.852,87.808,64.889,88.031,64.889,88.279z M62.97,85.203c0-0.147-0.022-0.278-0.067-0.396
		c-0.046-0.116-0.113-0.214-0.203-0.291c-0.091-0.077-0.205-0.136-0.342-0.178c-0.138-0.041-0.321-0.062-0.551-0.062h-0.751v1.896
		h0.83c0.215,0,0.386-0.025,0.514-0.076s0.234-0.12,0.319-0.209c0.085-0.088,0.147-0.191,0.188-0.311
		C62.949,85.46,62.97,85.335,62.97,85.203z M63.348,88.33c0-0.169-0.028-0.32-0.084-0.454c-0.057-0.134-0.14-0.246-0.249-0.336
		c-0.109-0.091-0.248-0.16-0.417-0.209c-0.17-0.049-0.39-0.073-0.661-0.073h-0.881v2.077h1.073c0.207,0,0.381-0.021,0.521-0.064
		c0.142-0.044,0.264-0.107,0.367-0.192s0.185-0.189,0.243-0.316C63.318,88.636,63.348,88.492,63.348,88.33z"/>
	<path fill="#AAAAAA" d="M70.094,89.849c0,0.113-0.005,0.208-0.014,0.285c-0.01,0.077-0.024,0.142-0.043,0.192
		s-0.042,0.087-0.07,0.109s-0.062,0.034-0.099,0.034h-3.348c-0.124,0-0.229-0.037-0.313-0.11s-0.127-0.192-0.127-0.358v-6.633
		c0-0.037,0.013-0.071,0.037-0.102s0.064-0.055,0.121-0.073s0.133-0.034,0.229-0.045c0.096-0.012,0.216-0.018,0.358-0.018
		c0.146,0,0.268,0.006,0.361,0.018c0.094,0.011,0.169,0.026,0.226,0.045s0.097,0.043,0.122,0.073
		c0.024,0.03,0.036,0.064,0.036,0.102v5.877h2.298c0.037,0,0.07,0.01,0.099,0.03c0.028,0.021,0.052,0.055,0.07,0.102
		c0.019,0.048,0.033,0.109,0.043,0.187C70.089,89.641,70.094,89.736,70.094,89.849z"/>
	<path fill="#AAAAAA" d="M75.299,89.889c0,0.108-0.005,0.2-0.015,0.273c-0.009,0.073-0.023,0.133-0.042,0.178
		s-0.042,0.078-0.07,0.099s-0.06,0.031-0.094,0.031h-3.669c-0.124,0-0.229-0.037-0.313-0.11s-0.127-0.192-0.127-0.358v-6.367
		c0-0.166,0.042-0.285,0.127-0.358s0.189-0.11,0.313-0.11h3.646c0.034,0,0.064,0.01,0.091,0.028s0.049,0.052,0.067,0.099
		s0.033,0.107,0.042,0.181c0.01,0.073,0.015,0.167,0.015,0.279c0,0.105-0.005,0.195-0.015,0.269
		c-0.009,0.073-0.023,0.133-0.042,0.178s-0.041,0.078-0.067,0.099s-0.057,0.031-0.091,0.031h-2.607v1.783h2.207
		c0.033,0,0.064,0.011,0.093,0.031s0.052,0.053,0.07,0.096c0.02,0.044,0.033,0.103,0.043,0.176c0.009,0.073,0.014,0.162,0.014,0.268
		c0,0.109-0.005,0.2-0.014,0.271c-0.01,0.071-0.023,0.129-0.043,0.172c-0.019,0.043-0.042,0.074-0.07,0.093
		c-0.028,0.02-0.06,0.028-0.093,0.028h-2.207v2.061h2.63c0.034,0,0.065,0.011,0.094,0.031s0.052,0.054,0.07,0.099
		s0.033,0.104,0.042,0.178C75.294,89.688,75.299,89.779,75.299,89.889z"/>
</g>
</svg>
