<?xml version="1.0" encoding="utf-8"?>
<!-- Generator: Adobe Illustrator 17.0.0, SVG Export Plug-In . SVG Version: 6.00 Build 0)  -->
<!DOCTYPE svg PUBLIC "-//W3C//DTD SVG 1.1//EN" "http://www.w3.org/Graphics/SVG/1.1/DTD/svg11.dtd">
<svg version="1.1" id="Layer_1" xmlns="http://www.w3.org/2000/svg" xmlns:xlink="http://www.w3.org/1999/xlink" x="0px" y="0px"
	 width="100px" height="100px" viewBox="0 0 100 100" enable-background="new 0 0 100 100" xml:space="preserve">
<rect fill="#E5E5E5" width="100" height="100"/>
<g>
	<g>
		<path fill="#AAAAAA" d="M31.89,83.71c-0.748-0.356-1.587-0.35-2.364-0.616c-4.415-1.515-7.053-4.565-7.484-9.2
			c-0.513-5.522,0.196-10.95,2.277-16.118c1.24-3.081,3.095-5.74,6.13-7.382c1.933-1.046,4.007-1.499,6.183-1.537
			c0.747-0.013,1.404,0.311,2.022,0.698c0.983,0.616,1.948,1.262,2.937,1.869c5.615,3.446,11.234,3.447,16.845-0.013
			c0.801-0.494,1.616-0.976,2.367-1.54c1.328-0.997,2.793-1.123,4.368-0.897c4.367,0.626,7.47,2.997,9.563,6.811
			c1.879,3.423,2.677,7.148,3.117,10.977c0.221,1.921,0.296,3.848,0.258,5.78c-0.118,6.078-4.023,10.353-10.081,11.038
			c-0.092,0.01-0.169,0.024-0.191,0.13C55.855,83.71,43.872,83.71,31.89,83.71z"/>
		<path fill="#AAAAAA" d="M51.246,16.29c0.747,0.298,1.556,0.288,2.328,0.48c6.271,1.564,11.157,6.948,12.048,13.32
			c1.051,7.519-2.754,14.453-9.727,17.412c-5.954,2.526-13.302,1.396-18.103-3.838c-4.608-5.024-5.72-10.881-3.268-17.133
			c2.258-5.758,6.7-9.164,12.905-10.104c0.135-0.02,0.319,0.068,0.394-0.137C48.964,16.29,50.105,16.29,51.246,16.29z"/>
	</g>
</g>
</svg>
